<svg width="30" height="24" viewBox="0 0 289 286" fill="none" xmlns="http://www.w3.org/2000/svg">
<path d="M257.375 286L163.355 192.626C156.205 197.641 147.566 201.68 137.438 204.742C127.307 207.801 116.685 209.331 105.571 209.331C76.1695 209.331 51.2232 199.17 30.7325 178.848C10.2442 158.526 0 133.785 0 104.624C0 75.4626 10.2478 50.7356 30.7434 30.4428C51.2415 10.1476 76.1975 0 105.612 0C135.025 0 159.968 10.1573 180.439 30.4718C200.908 50.784 211.143 75.5158 211.143 104.667C211.143 115.823 209.687 126.153 206.777 135.658C203.865 145.162 199.757 153.579 194.454 160.909L289 254.85L257.375 286ZM105.487 164.726C122.621 164.726 137.016 158.977 148.671 147.48C160.324 135.981 166.151 121.737 166.151 104.751C166.151 87.7613 160.324 73.4904 148.671 61.9377C137.016 50.3825 122.621 44.605 105.487 44.605C88.3505 44.605 73.9838 50.3825 62.387 61.9377C50.7878 73.4904 44.9882 87.7613 44.9882 104.751C44.9882 121.737 50.7878 135.981 62.387 147.48C73.9838 158.977 88.3505 164.726 105.487 164.726Z" fill="#666666"/>
</svg>